<svg width="45" height="42" viewBox="0 0 45 42" fill="none" xmlns="http://www.w3.org/2000/svg">
<path d="M28.2481 36.4703C28.8106 36.4375 27.088 38.5828 25.2598 39.3689C23.7833 40.0076 22.4473 40.2696 20.918 40.2696C18.9845 40.2696 16.9454 39.9093 15.5567 38.5828C14.4668 37.5347 14.1505 36.1755 14.2032 34.7671C14.2383 34.194 14.3086 33.6208 14.3965 33.064C14.5196 32.4581 14.6954 31.803 14.9415 31.1152L17.7188 24.1716L18.2286 22.5667C18.2286 22.5667 19.547 18.6527 15.6798 18.62C14.2735 18.62 17.6133 15.9506 18.6153 15.5248C20.0567 14.9189 20.8477 14.9025 22.0255 14.9516C24.1173 15.0499 25.3301 15.5248 26.4551 16.5074C27.5274 17.4736 28.0548 18.6855 27.9668 20.1757L27.7911 21.7478C27.6505 22.5339 27.4746 23.2381 27.2461 23.8768L24.7149 30.7057C24.4864 31.2626 24.3106 31.9176 24.1348 32.6054C23.959 33.2933 23.8184 33.8664 23.8008 34.2103C23.7833 34.2267 23.3614 36.7323 28.2481 36.4703Z" fill="#8A0303"/>
<path d="M20.4083 6.46867C20.4083 9.13806 22.7286 11.2997 25.5938 11.2997C28.4591 11.2997 30.7794 9.13806 30.7794 6.46867C30.7794 3.79931 28.4591 1.63762 25.5938 1.63762C22.7461 1.63762 20.4083 3.79931 20.4083 6.46867Z" fill="#8A0303"/>
</svg>
