<svg width="33" height="33" viewBox="0 0 33 33" fill="none" xmlns="http://www.w3.org/2000/svg">
<rect x="0.5" y="0.5" width="32" height="32" rx="9.5" stroke="white"/>
<path d="M22.8931 10.0963H13.5011L14.2881 8.29139C14.4555 7.90623 14.3331 7.46582 13.9874 7.20559C13.6412 6.94553 13.154 6.9311 12.7898 7.16852L6.43037 11.3129C6.15179 11.4944 5.99005 11.7961 6.00048 12.114C6.01086 12.4317 6.19202 12.7233 6.48193 12.8883L13.1317 16.6768C13.5101 16.8922 13.9939 16.8494 14.3221 16.5714C14.6508 16.2934 14.7459 15.8412 14.5567 15.4663L13.6827 13.7314H22.8931C23.5727 13.7314 24.1256 14.2602 24.1256 14.8978V21.2181C24.1256 21.8557 23.5727 22.3649 22.8931 22.3649H12.7003C11.791 22.3649 11.0539 23.0564 11.0539 23.9095V24.4553C11.0539 25.3085 11.791 26 12.7003 26H22.8931C25.7091 26 28 23.8603 28 21.218V14.8978C28.0001 12.2556 25.7091 10.0963 22.8931 10.0963Z" fill="#8A0303"/>
</svg>
