<svg width="37" height="29" viewBox="0 0 37 29" fill="none" xmlns="http://www.w3.org/2000/svg">
<path d="M10.2678 1.70698H35.2568C35.7189 1.70785 36.1618 1.90817 36.4885 2.26405C36.8153 2.61993 36.9992 3.10236 37 3.60565V23.7663C37.0004 24.1465 36.8955 24.5179 36.6989 24.8321C36.6621 24.9336 36.6056 25.0253 36.5333 25.101C36.4852 25.1512 36.4304 25.1932 36.3708 25.2256C36.0585 25.5107 35.6642 25.6673 35.2568 25.6683H20.4712C20.5781 25.1911 20.6207 24.6996 20.5976 24.209H34.8142L25.5292 13.5876L22.4643 16.434C22.3442 16.5428 22.1929 16.6024 22.0367 16.6024C21.8805 16.6024 21.7293 16.5428 21.6092 16.434L18.3938 13.5876L15.4764 16.7717C15.0746 16.4753 14.6236 16.267 14.1486 16.1585L17.3521 12.6629L11.4119 7.3866C11.3868 7.00494 11.3181 6.62819 11.2072 6.26511L10.9693 5.12066L22.0217 14.9354L34.6998 3.16952H10.5689L10.2678 1.70698ZM5.25499 10.8888C5.53655 12.578 6.01511 14.2211 6.67906 15.7781C7.46259 17.5568 8.52412 19.1735 9.81623 20.556C9.86132 20.6073 9.91629 20.6472 9.97719 20.6727C10.0381 20.6982 10.1034 20.7087 10.1685 20.7035C10.3807 20.6749 10.5854 20.6002 10.7706 20.4838C10.9907 20.3514 11.2019 20.2024 11.4029 20.0379C12.3482 19.323 13.5104 18.4343 14.5009 19.4312C14.525 19.4542 14.537 19.4771 14.5611 19.4968L17.7133 23.2777C17.7243 23.2911 17.7344 23.3054 17.7434 23.3204C17.925 23.589 18.0419 23.9029 18.0835 24.2334C18.125 24.564 18.0899 24.9006 17.9813 25.2125C17.7351 25.9391 17.3275 26.588 16.7951 27.1013C16.1311 27.7499 15.2928 28.1478 14.4046 28.2359C13.572 28.3189 12.733 28.2748 11.9117 28.1048C10.6829 27.8771 9.51824 27.3466 8.50656 26.5537C7.40132 25.6633 6.40388 24.6243 5.53799 23.4614L5.46574 23.3663C5.00811 22.776 4.51435 22.1431 4.05371 21.4381C2.23185 18.5935 0.95498 15.3781 0.299345 11.9841C-0.218498 9.11476 -0.113123 6.24871 1.00084 3.87783C1.60299 2.56614 2.52427 1.51679 3.71049 1.02818C4.74618 0.595325 5.97154 0.588766 7.36249 1.23477C7.4398 1.26988 7.50783 1.32546 7.56041 1.39647C7.61299 1.46748 7.64844 1.55167 7.66356 1.6414L8.78656 7.07835C8.89081 7.34276 8.92296 7.63426 8.87918 7.91803C8.8354 8.2018 8.71754 8.46585 8.53968 8.67862C8.18412 9.07265 7.73812 9.35573 7.24808 9.49842C7.07948 9.57713 6.88379 9.64599 6.67605 9.71813C5.99261 9.9608 5.21284 10.2461 5.25198 10.9151L5.25499 10.8888ZM26.5468 12.6366L35.6572 23.0416V4.19264L26.5468 12.6465V12.6366Z" fill="#8A0303"/>
</svg>
