<svg width="189" height="188" viewBox="0 0 189 188" fill="none" xmlns="http://www.w3.org/2000/svg">
<path d="M78.0441 16.9453L77.6937 17.0226C35.3004 26.3812 8.52284 68.3446 17.8842 110.75L17.9616 111.101C27.323 153.507 69.2783 180.297 111.672 170.938L112.022 170.861C154.415 161.502 181.193 119.539 171.832 77.1329L171.754 76.7824C162.393 34.3767 120.437 7.58666 78.0441 16.9453Z" fill="#5865F2"/>
<path d="M125.562 50.108C117.76 48.4202 109.641 47.7015 101.398 48.0848C101.247 48.09 101.116 48.1868 101.075 48.3371C100.483 50.2889 99.9005 52.7983 99.5386 54.7444C90.7174 55.3514 82.2216 57.227 74.1371 60.3519C72.9747 58.6971 71.3617 56.7176 69.9973 55.1978C69.8932 55.0851 69.7334 55.0525 69.598 55.105C61.9651 58.2264 54.898 62.2974 48.5323 67.1128C48.479 67.1529 48.4346 67.2079 48.4099 67.2755C38.7578 91.9819 39.4471 113.851 45.9607 134.163C45.9941 134.263 46.0694 134.348 46.1634 134.39C57.209 139.275 67.3523 141.481 77.0075 142.295C77.1626 142.306 77.3016 142.219 77.367 142.08C78.8578 138.692 80.0864 135.191 81.0044 131.59C81.0598 131.38 80.9127 131.175 80.702 131.142C77.4242 130.661 74.2425 129.899 71.1216 128.925C70.872 128.845 70.7869 128.535 70.9531 128.34C71.4388 127.775 71.921 127.194 72.3751 126.613C72.4585 126.504 72.595 126.457 72.7255 126.484C92.742 130.775 112.429 126.428 128.564 114.158C128.669 114.072 128.814 114.063 128.934 114.121C129.591 114.457 130.274 114.787 130.958 115.094C131.191 115.201 131.249 115.516 131.057 115.694C128.648 117.922 126.072 119.927 123.295 121.739C123.112 121.859 123.076 122.105 123.216 122.277C125.6 125.138 128.182 127.797 130.925 130.257C131.038 130.362 131.207 130.382 131.343 130.306C139.801 125.493 148.072 119.222 156.035 110.14C156.103 110.063 156.135 109.954 156.124 109.855C153.15 85.3685 142.353 65.9116 125.733 50.2173C125.687 50.1651 125.628 50.1273 125.557 50.1146L125.562 50.108ZM79.8357 113.44C74.3586 114.649 68.7426 110.619 67.3795 104.444C66.0165 98.27 69.3328 92.2673 74.8907 91.0403C80.4487 89.8134 86.0864 93.8903 87.347 100.036C88.71 106.211 85.3936 112.213 79.8357 113.44ZM116.757 105.29C111.28 106.499 105.664 102.468 104.301 96.2936C102.938 90.1193 106.254 84.1165 111.812 82.8896C117.37 81.6626 123.008 85.7396 124.269 91.8856C125.632 98.0599 122.364 104.052 116.757 105.29Z" fill="white"/>
</svg>
