<svg width="188" height="188" viewBox="0 0 188 188" fill="none" xmlns="http://www.w3.org/2000/svg">
<path d="M77.1102 16.9453L76.7598 17.0226C34.3666 26.3813 7.5889 68.3446 16.9503 110.75L17.0276 111.101C26.389 153.507 68.3445 180.297 110.738 170.938L111.088 170.861C153.481 161.502 180.259 119.539 170.898 77.1329L170.82 76.7824C161.459 34.3767 119.504 7.58667 77.1102 16.9453Z" fill="url(#paint0_linear_1_684)"/>
<path d="M107.656 43.0418L60.0445 53.5525C46.891 56.4562 38.5532 69.5224 41.4578 82.6799L51.0763 126.25C53.9809 139.408 67.0446 147.75 80.1982 144.846L127.81 134.335C140.963 131.431 149.301 118.365 146.397 105.208L136.778 61.6372C133.874 48.4797 120.81 40.1381 107.656 43.0418ZM49.8728 80.8222C47.9932 72.3076 53.3907 63.8491 61.9028 61.97L109.514 51.4594C118.027 49.5803 126.483 54.9803 128.363 63.4949L137.982 107.066C139.861 115.58 134.464 124.039 125.952 125.918L78.34 136.428C69.8279 138.307 61.371 132.907 59.4914 124.393L49.8728 80.8222Z" fill="white"/>
<path d="M98.8259 116.134C111.058 113.433 118.817 101.281 116.115 89.0401C113.413 76.7994 101.264 69.0418 89.0264 71.7433C76.7893 74.4447 69.0353 86.596 71.7376 98.8367C74.4398 111.077 86.5888 118.835 98.8259 116.134ZM90.8859 80.1662C98.4815 78.4894 106.024 83.3053 107.701 90.9032C109.378 98.5011 104.565 106.045 96.9689 107.721C89.3732 109.398 81.8311 104.582 80.1538 96.9844C78.4765 89.3865 83.2902 81.843 90.8859 80.1662Z" fill="white"/>
<path d="M114.061 69.9775C117.354 69.2504 119.447 65.9777 118.719 62.6775C117.99 59.3774 114.719 57.2888 111.42 58.0171C108.121 58.7455 106.033 62.0169 106.762 65.3171C107.49 68.6172 110.761 70.7058 114.061 69.9775Z" fill="white"/>
<defs>
<linearGradient id="paint0_linear_1_684" x1="51.4936" y1="160.434" x2="136.395" y2="27.4793" gradientUnits="userSpaceOnUse">
<stop stop-color="#FAAD4F"/>
<stop offset="0.35" stop-color="#DD2A7B"/>
<stop offset="0.62" stop-color="#9537B0"/>
<stop offset="1" stop-color="#515BD4"/>
</linearGradient>
</defs>
</svg>
