<svg width="188" height="189" viewBox="0 0 188 189" fill="none" xmlns="http://www.w3.org/2000/svg">
<path d="M77.2121 17.7436L76.8618 17.8209C34.4685 27.1795 7.69078 69.1429 17.0522 111.549L17.1295 111.899C26.4909 154.305 68.4464 181.095 110.84 171.736L111.19 171.659C153.583 162.3 180.361 120.337 171 77.9312L170.922 77.5807C161.561 35.1749 119.605 8.38494 77.2121 17.7436Z" fill="#007EBB"/>
<path d="M48.0919 77.8286C45.6495 76.3941 44.1272 74.2871 43.5153 71.5154C42.9035 68.7437 43.38 66.088 44.9849 63.7544C46.5964 61.425 48.9972 59.9053 52.194 59.1996C55.3907 58.4939 58.1058 58.8842 60.5428 60.3198C62.9852 61.7543 64.5159 63.8991 65.1432 66.7409C65.7706 69.5827 65.2559 72.0658 63.6498 74.394C62.0383 76.7234 59.6752 78.2348 56.5485 78.925C53.4218 79.6152 50.5343 79.263 48.0919 77.8286ZM67.3645 84.8957L80.102 142.594L61.8756 146.618L49.1382 88.9193L67.3645 84.8957Z" fill="#FEFFFC"/>
<path d="M129.296 77.2013C134.222 80.6381 137.513 86.121 139.177 93.6596L146.507 126.866L129.198 130.687L122.384 99.8212C121.544 96.0195 119.906 93.2823 117.474 91.6136C115.042 89.945 112.156 89.4735 108.835 90.2066C105.515 90.9397 103.094 92.5768 101.592 95.1196C100.089 97.657 99.7547 100.83 100.594 104.631L107.408 135.498L89.9956 139.341L77.4475 82.5001L94.8597 78.6562L96.5239 86.1948C97.732 83.2928 99.6714 80.7835 102.335 78.6629C104.999 76.5423 108.197 75.0729 111.933 74.2482C118.585 72.7796 124.376 73.7632 129.296 77.2013Z" fill="#FEFFFC"/>
</svg>
