<svg width="31" height="30" viewBox="0 0 31 30" fill="none" xmlns="http://www.w3.org/2000/svg">
<g clip-path="url(#clip0_93_116)">
<path d="M15.7566 0.00245617C19.2277 0.00146398 22.5917 1.20413 25.2755 3.40551C27.9592 5.60689 29.7966 8.67076 30.4745 12.075C31.1523 15.4793 30.6288 19.0133 28.9931 22.0748C27.3573 25.1363 24.7106 27.5359 21.5039 28.8646C18.2972 30.1934 14.7289 30.3691 11.4072 29.3618C8.08546 28.3544 5.2158 26.2265 3.28721 23.3405C1.35863 20.4544 0.49046 16.989 0.830648 13.5346C1.17084 10.0802 2.69833 6.85065 5.15284 4.39628C6.54342 3.00106 8.19616 1.89459 10.016 1.14053C11.8358 0.386462 13.7867 -0.000312991 15.7566 0.00245617ZM8.62396 19.3816L13.4767 14.5167L8.62396 10.5598V19.3816ZM14.0113 14.9512L9.00719 19.9675H22.462L17.6825 14.9512L16.1057 16.2962C16.0437 16.347 15.9661 16.3747 15.886 16.3747C15.8059 16.3747 15.7282 16.347 15.6663 16.2962L14.0113 14.9463V14.9512ZM18.2049 14.5069L22.8892 19.4207V10.5159L18.2049 14.5069ZM9.05846 10.0326L15.8689 15.5883L22.3986 10.0326H9.05846ZM25.0227 5.72663C22.8773 3.58187 20.0546 2.2473 17.0355 1.95029C14.0165 1.65329 10.9879 2.41222 8.46564 4.0978C5.94341 5.78337 4.08361 8.29131 3.20311 11.1943C2.3226 14.0973 2.47585 17.2159 3.63676 20.0185C4.79767 22.8212 6.8944 25.1347 9.56975 26.5649C12.2451 27.995 15.3336 28.4534 18.3089 27.8618C21.2843 27.2702 23.9625 25.6653 25.8873 23.3205C27.8121 20.9757 28.8643 18.0361 28.8648 15.0025C28.8672 13.2794 28.529 11.5729 27.8696 9.98103C27.2103 8.38915 26.2427 6.94331 25.0227 5.72663Z" fill="#8A0303"/>
</g>
<defs>
<clipPath id="clip0_93_116">
<rect width="29.9951" height="29.9951" fill="white" transform="translate(0.759262 0.00244141)"/>
</clipPath>
</defs>
</svg>
