<svg width="54" height="54" viewBox="0 0 54 54" fill="none" xmlns="http://www.w3.org/2000/svg">
<g clip-path="url(#clip0_93_112)">
<path d="M27.0001 1.00266e-05C33.2468 -0.000933627 39.3005 2.16411 44.1298 6.12623C48.9591 10.0884 52.2651 15.6024 53.4847 21.7289C54.7042 27.8553 53.7617 34.2151 50.8178 39.7245C47.8739 45.234 43.1107 49.5522 37.3399 51.9434C31.569 54.3347 25.1476 54.6509 19.1697 52.8384C13.1918 51.0258 8.02734 47.1965 4.55628 42.0031C1.08522 36.8096 -0.477672 30.5732 0.133908 24.3566C0.745488 18.1399 3.4937 12.3277 7.91027 7.91017C10.4149 5.39994 13.3905 3.40899 16.6664 2.05156C19.9424 0.694137 23.4541 -0.00304956 27.0001 1.00266e-05ZM21.4454 24.8071C22.2715 26.3492 23.292 27.7788 24.482 29.061C25.8656 30.5155 27.4926 31.7172 29.2897 32.6118C29.3532 32.6442 29.4227 32.6628 29.4939 32.6666C29.565 32.6704 29.6362 32.6592 29.7027 32.6338C29.9251 32.5301 30.1228 32.3803 30.2828 32.1943C30.4723 31.9906 30.6484 31.7748 30.8102 31.5484C31.5792 30.5332 32.5416 29.272 33.8863 29.9004L33.9654 29.9443L38.4742 32.5371L38.5182 32.5635C38.795 32.7625 39.0175 33.0276 39.1657 33.3346C39.3138 33.6416 39.3828 33.9808 39.3663 34.3213C39.3353 35.11 39.1088 35.8786 38.7071 36.5581C38.2104 37.4126 37.4504 38.0833 36.5406 38.4697C35.6888 38.8376 34.7893 39.0831 33.8688 39.1992C32.4996 39.3991 31.1029 39.2818 29.7862 38.8565C28.3387 38.3746 26.9592 37.7085 25.6818 36.8745L25.5763 36.8086C24.9083 36.3955 24.1876 35.9297 23.4801 35.4199C20.663 33.2928 18.3043 30.6188 16.5455 27.5581C15.1041 24.9522 14.3175 22.1397 14.7482 19.4546C14.9185 18.026 15.6139 16.7119 16.6993 15.7676C17.2557 15.3386 17.8921 15.0251 18.5713 14.8455C19.2505 14.6659 19.9587 14.6238 20.6544 14.7217C20.7458 14.7305 20.8336 14.7616 20.9102 14.8121C20.9868 14.8627 21.0498 14.9312 21.0939 15.0117L23.9811 19.8941C24.1741 20.1154 24.2995 20.3876 24.3423 20.6782C24.3852 20.9688 24.3437 21.2655 24.2228 21.5332C23.968 22.0334 23.586 22.4578 23.1153 22.7637C22.9615 22.8999 22.777 23.0317 22.5836 23.1724C21.9376 23.6426 21.2037 24.1831 21.4542 24.8203L21.4454 24.8071ZM43.4796 10.5205C39.6681 6.71237 34.6541 4.34347 29.292 3.81736C23.9298 3.29125 18.551 4.64048 14.0721 7.6352C9.59306 10.6299 6.29087 15.0849 4.72802 20.2412C3.16518 25.3975 3.43835 30.9361 5.50102 35.9136C7.56368 40.8911 11.2882 44.9994 16.0402 47.5389C20.7921 50.0783 26.2775 50.8917 31.5619 49.8405C36.8463 48.7893 41.6028 45.9385 45.0211 41.7737C48.4394 37.609 50.308 32.3879 50.3087 27C50.3125 23.9387 49.7111 20.9068 48.5391 18.0786C47.3671 15.2505 45.6477 12.6819 43.4796 10.5205Z" fill="#8A0303"/>
</g>
<defs>
<clipPath id="clip0_93_112">
<rect width="54" height="54" fill="white"/>
</clipPath>
</defs>
</svg>
