<svg width="44" height="42" viewBox="0 0 44 42" fill="none" xmlns="http://www.w3.org/2000/svg">
<g clip-path="url(#clip0_18_117)">
<mask id="mask0_18_117" style="mask-type:luminance" maskUnits="userSpaceOnUse" x="0" y="0" width="44" height="42">
<path d="M43.7875 0H0V41.9594H43.7875V0Z" fill="white"/>
</mask>
<g mask="url(#mask0_18_117)">
<path d="M25.7709 15.2713C26.2735 15.3352 26.7243 15.5564 27.0659 15.8829C27.4741 16.2721 27.7263 16.8103 27.7263 17.4044C27.7263 17.9986 27.4741 18.5364 27.0659 18.926C26.6577 19.3156 26.0943 19.5563 25.4719 19.5563C24.8494 19.5563 24.286 19.3153 23.8779 18.926C23.4701 18.5367 23.2175 17.9986 23.2175 17.4044C23.2175 16.8338 23.45 16.3152 23.8299 15.93C24.1569 14.7694 24.5057 13.6835 24.8713 12.6694H18.1969L1.83458 28.2876L14.322 40.208L30.6768 24.5967L30.2657 12.669H26.6509C26.3458 13.4834 26.0518 14.3497 25.7709 15.2713ZM15.4971 29.0992C15.8473 28.7649 16.0362 28.4197 16.0612 28.0656C16.0888 27.7095 15.9725 27.2379 15.7153 26.6537C15.456 26.0674 15.2331 25.5111 15.0464 24.9856C14.8597 24.4601 14.7552 23.9564 14.7255 23.4722C14.7005 22.9874 14.7734 22.5271 14.9487 22.091C15.1194 21.6543 15.4309 21.222 15.8813 20.7921C16.6322 20.0754 17.5036 19.7257 18.4977 19.7455C19.4897 19.767 20.4498 20.1409 21.3738 20.8703L22.4044 21.9063C23.1005 22.7965 23.4057 23.7263 23.3191 24.6947C23.235 25.661 22.7711 26.5475 21.9265 27.353L19.6743 25.2028C20.1361 24.7619 20.4022 24.3385 20.4748 23.9301C20.5432 23.5214 20.4158 23.1612 20.0881 22.8484C19.7945 22.5684 19.4739 22.4403 19.1259 22.4595C18.7799 22.4813 18.4433 22.6462 18.1182 22.957C17.7883 23.2718 17.6198 23.6105 17.6131 23.9735C17.6063 24.3365 17.7225 24.7985 17.9611 25.3612C18.1976 25.9253 18.4047 26.471 18.5821 27.0006C18.7596 27.5309 18.8619 28.0369 18.8891 28.5184C18.9162 29.0053 18.8436 29.47 18.6776 29.9198C18.507 30.3691 18.1997 30.8062 17.7518 31.2337C16.9917 31.9593 16.1342 32.3216 15.1719 32.3196C14.2097 32.3175 13.2721 31.9566 12.362 31.2405L11.0216 32.5197L9.96135 31.5072L11.3085 30.2219C10.4418 29.1989 10.0322 28.1738 10.0755 27.1419C10.1209 26.1128 10.6035 25.157 11.5225 24.2795L13.7682 26.4228C13.2631 26.905 12.9902 27.3786 12.9537 27.8433C12.9151 28.3101 13.1018 28.7403 13.5157 29.1351C13.8158 29.4219 14.1435 29.5653 14.4962 29.5592C14.8486 29.5534 15.183 29.3987 15.4971 29.0992ZM25.4261 11.2181C27.9717 4.93624 31.237 1.73398 34.2722 0.557642C37.1437 -0.554846 39.8245 0.0901797 41.6102 1.67013C43.3856 3.24154 44.2584 5.74004 43.5301 8.34746C42.6437 11.5193 39.3694 14.851 32.3999 16.727C32.2368 16.7707 32.0715 16.7652 31.9209 16.7198L32.2017 24.8664C32.2085 25.0744 32.1227 25.2639 31.9803 25.4005L31.9821 25.4018L14.8597 41.746C14.5627 42.0294 14.0816 42.0294 13.7851 41.746L0.222683 28.8011C-0.0742276 28.5177 -0.0742276 28.0581 0.222683 27.7747L17.3451 11.4309C17.4936 11.2892 17.6878 11.2185 17.8824 11.2185L25.4261 11.2181ZM31.8691 15.2054C31.8937 15.1962 31.9198 15.188 31.946 15.1808C38.2383 13.4872 41.153 10.6267 41.9039 7.93907C42.463 5.93843 41.807 4.03375 40.4648 2.84545C39.1319 1.66603 37.1043 1.19515 34.9051 2.04745C32.3201 3.04896 29.521 5.80731 27.2294 11.2178H30.9991C31.4187 11.2178 31.7589 11.5425 31.7589 11.9434C31.7589 11.9554 31.7585 11.9677 31.7578 11.9796L31.8691 15.2054Z" fill="#8A0303"/>
</g>
</g>
<defs>
<clipPath id="clip0_18_117">
<rect width="44" height="42" fill="white"/>
</clipPath>
</defs>
</svg>
