<svg width="54" height="45" viewBox="0 0 54 45" fill="none" xmlns="http://www.w3.org/2000/svg">
<path d="M5.48332 2.6087C2.44688 2.6087 0 4.62258 0 7.12735C0 9.62948 2.44687 11.6452 5.48438 11.6452C8.52185 11.6452 10.9688 9.62948 10.9688 7.12735C10.9688 4.62258 8.52185 2.6087 5.48332 2.6087ZM19.4062 4.91624C19.132 5.27506 18.9844 5.74855 18.9316 6.24725C16.7379 6.18643 14.7973 6.15776 12.7828 6.18382C12.8672 6.7303 12.8988 7.23939 12.825 7.7477C14.9133 7.72598 16.9488 7.7477 18.9633 7.81454C18.9949 8.08565 19.0371 8.33237 19.0898 8.5322C17.8348 10.6547 16.411 12.3663 15.6832 14.6512C15.9258 16.7885 16.2316 19.2732 18.1195 21.4018C18.6469 23.1307 19.0793 24.851 19.6593 26.5799C19.8809 24.3992 20.461 22.0707 21.9164 19.6989C21.716 18.9083 21.6949 18.2046 21.7793 17.4661C21.3363 16.7624 20.7457 16.0587 19.7543 15.381C21.1148 13.3132 21.1465 11.3671 21.6106 9.14296L23.6672 8.72765C23.857 8.52007 24.0152 8.30022 24.1312 8.07085C27.4008 8.29154 30.586 8.61561 33.6867 9.02133C33.75 8.49222 33.8977 7.97961 34.1191 7.4957C30.9973 7.08307 27.791 6.75287 24.5004 6.52526C24.5004 6.12996 24.4582 5.71901 24.3844 5.29764C22.5809 5.07436 21.0515 4.77115 19.4062 4.91624ZM41.0273 5.12823C37.9898 5.12823 35.543 7.14209 35.543 9.64689C35.543 12.149 37.9898 14.1646 41.0273 14.1646C44.0648 14.1646 46.5117 12.149 46.5117 9.64689C46.5117 7.14209 44.0648 5.12823 41.0273 5.12823ZM26.789 14.5208C25.9981 14.5208 25.2492 14.8597 24.6481 15.5287C24.0363 16.189 23.625 17.162 23.625 18.248C23.625 18.8214 23.741 19.4296 23.9414 19.9075C24.8801 19.6381 25.8504 19.2558 26.7574 18.6042C27.5907 19.1603 28.5082 19.5513 29.584 19.9075C29.816 19.3949 29.9531 18.8736 29.9531 18.248C29.9531 17.162 29.5418 16.189 28.9301 15.5287C28.3289 14.8597 27.5801 14.5208 26.789 14.5208ZM26.7574 19.6381C26.0402 20.5591 25.8293 20.9153 24.4688 20.7589C25.0277 21.4018 25.8082 21.9839 26.789 21.9752C27.886 21.9665 28.6031 21.4105 29.0883 20.7762C27.907 20.8458 27.3059 20.5069 26.7574 19.6381ZM33.1699 22.0968C33.4231 24.2775 33.5496 25.5199 33.3281 27.6398C33.5602 27.9178 33.6235 29.2992 34.4988 29.5946C33.1488 30.1593 32.6426 31.6884 31.9043 32.2879C29.9848 34.1645 28.6242 37.0924 27.3059 39.7857C27.6961 40.8978 28.1812 42.0011 28.7508 43.0958H34.7519C34.1613 40.7327 33.3176 38.3435 32.4106 35.963C32.7691 35.4938 32.7269 35.6154 33.0961 33.9647C34.6676 33.0785 38.0742 31.5929 38.6437 29.6555C38.1164 27.9265 37.4098 26.8058 36.1652 25.3201C36.4606 23.2176 34.4566 22.6442 33.1699 22.0968ZM22.5914 22.3922C22.2223 23.2958 21.9691 24.1906 21.7898 25.0768L23.2559 24.9726C22.9184 24.1299 22.739 23.2263 22.5914 22.3922ZM29.5418 22.6963C28.7613 23.2176 27.8121 23.539 26.789 23.539C26.0086 23.539 25.2809 23.3566 24.6375 23.0438C24.6902 23.2523 24.7324 23.4608 24.7957 23.6693C24.9961 24.4079 25.2914 25.129 25.6394 25.6155C25.9769 26.0933 26.2723 26.2671 26.5781 26.2845C26.9051 26.3018 27.2742 26.1541 27.7277 25.7024C28.1918 25.2506 28.6453 24.5555 29.0144 23.8432C29.2148 23.4522 29.3941 23.0612 29.5418 22.6963ZM31.3769 23.1307C31.0816 23.8171 30.818 24.3992 30.4699 24.9987L31.5035 25.0421C31.4824 24.4079 31.4402 23.7736 31.3769 23.1307ZM24.0574 26.493L21.5578 26.6667C21.4945 27.3357 21.4629 28.0047 21.4418 28.665L31.4191 28.5347C31.493 27.9005 31.5246 27.2575 31.5352 26.6146L29.3731 26.519C28.5715 27.2662 27.4218 27.883 26.4515 27.8484C25.3652 27.7875 24.5742 27.1793 24.0574 26.493ZM30.9762 30.0985L21.4418 30.2288C21.3469 31.0368 22.1695 31.6363 22.739 31.9925L29.7738 31.9751C30.5332 31.2801 30.6809 31.0021 30.9762 30.0985ZM21.1465 32.9135C19.6277 36.3018 18.014 39.6815 16.8012 43.0958H22.4015C23.1082 42.0272 23.7515 40.9325 24.3 39.8118C24.2262 37.0403 22.7707 34.347 21.1465 32.9135ZM28.561 33.5477L24.1418 33.5564C24.9644 34.6945 25.3863 36.0585 25.7238 37.5181L26.5992 37.4486C27.2426 36.128 27.7172 34.7813 28.561 33.5477Z" fill="#8A0303"/>
</svg>
