<svg width="189" height="185" viewBox="0 0 189 185" fill="none" xmlns="http://www.w3.org/2000/svg">
<path d="M77.7323 13.104L77.3818 13.1814C34.9885 22.54 8.2109 64.5033 17.5723 106.909L17.6497 107.26C27.011 149.665 68.9664 176.455 111.36 167.097L111.71 167.019C154.103 157.661 180.881 115.697 171.52 73.2917L171.442 72.9412C162.081 30.5354 120.126 3.74539 77.7323 13.104Z" fill="#00B0F2"/>
<path d="M46.1745 98.0276C46.3664 97.8722 46.5595 97.7221 46.7483 97.5786C50.0295 95.0785 53.383 92.6756 56.7311 90.2738C56.9306 90.2298 57.2135 89.9242 57.3855 89.807C57.6439 89.6199 57.9035 89.4382 58.1618 89.2511L59.6501 88.1817C60.6462 87.4698 61.6369 86.7591 62.6331 86.0472C64.62 84.6246 66.6069 83.2019 68.5927 81.7739C72.5665 78.9286 76.5447 76.0768 80.5185 73.2315C84.4924 70.3862 88.4704 67.5344 92.4443 64.6891C96.4182 61.8439 100.396 58.992 104.37 56.1468C108.344 53.3015 112.322 50.4496 116.296 47.6043C117.179 46.9683 118.097 46.1096 119.103 45.6954C119.947 45.345 120.737 44.8538 121.584 44.4915C123.191 43.8032 125.011 43.2656 126.771 43.6066C127.38 43.7267 127.967 43.9533 128.487 44.2853C130.97 45.8522 131.415 49.2263 131.61 52.1579C132.971 72.5893 134.334 93.0261 135.69 113.459C135.879 116.262 135.976 119.362 134.214 121.549C132.723 123.4 130.182 124.13 127.809 124.009C125.435 123.883 123.175 123.019 120.957 122.168C111.757 118.623 102.551 115.08 93.3501 111.535C91.1632 110.694 88.675 109.513 88.1906 107.216C87.8966 105.834 88.4499 104.422 89.0493 103.142C94.0156 92.4995 102.699 84.0224 108.271 73.6877C109.057 72.2303 109.399 69.8362 107.793 69.4499C106.838 69.2197 105.972 70.0103 105.305 70.7287C96.9253 79.7889 88.5522 88.8534 80.1724 97.9137C77.4386 100.87 74.5626 103.925 70.7919 105.334C67.4189 106.599 63.7006 106.402 60.1123 106.154C57.1042 105.947 54.0967 105.717 51.094 105.458C49.4984 105.324 47.8459 105.163 46.4601 104.366C45.0744 103.569 44.0209 101.947 44.4068 100.391C44.6494 99.4161 45.3732 98.6739 46.1627 98.0246L46.1745 98.0276Z" fill="#FEFFFC"/>
</svg>
