<svg width="189" height="189" viewBox="0 0 189 189" fill="none" xmlns="http://www.w3.org/2000/svg">
<path d="M77.5276 17.5429L77.1772 17.6203C34.7839 26.9789 8.00625 68.9422 17.3676 111.348L17.445 111.698C26.8064 154.104 68.7618 180.894 111.155 171.536L111.506 171.458C153.899 162.1 180.676 120.136 171.315 77.7306L171.238 77.3801C161.876 34.9743 119.921 8.18429 77.5276 17.5429Z" fill="#00E510"/>
<path d="M114.305 113.74C94.6127 118.087 75.0521 105.592 70.6982 85.895C69.6012 80.9005 72.7696 75.9427 77.7507 74.8431C78.2628 74.73 78.779 74.6613 79.2832 74.6405C80.3899 74.5828 81.4832 74.7203 82.536 75.0591C82.6886 75.1102 82.8088 75.2194 82.8637 75.3656L87.8408 88.026C87.9023 88.1764 87.8871 88.3381 87.8097 88.474C86.9424 90.0001 85.6785 91.2405 84.1462 92.0594L83.408 92.4542L83.8723 93.1491C88.0664 99.394 94.7386 103.65 102.175 104.836L103.002 104.97L103.049 104.134C103.146 102.399 103.739 100.73 104.758 99.3004C104.83 99.1939 104.945 99.1234 105.069 99.096C105.096 99.0901 105.123 99.0841 105.156 99.0824L118.731 98.2684C118.894 98.2609 119.042 98.3186 119.153 98.4355C119.898 99.2494 120.484 100.189 120.903 101.216C121.094 101.672 121.242 102.165 121.358 102.688C122.459 107.676 119.296 112.632 114.305 113.74Z" fill="#FDFDFD"/>
<path d="M143.304 79.198C139.592 67.4289 131.635 57.5075 120.9 51.2644C110.101 44.9847 97.4518 43.004 85.274 45.6924C58.5463 51.5927 41.6019 78.1464 47.504 104.882C49.4848 113.855 53.8888 122.05 60.2543 128.63L54.9138 154.069L87.5769 143.121C93.9198 144.22 100.343 144.069 106.677 142.671C108.343 142.303 110.033 141.839 111.708 141.283C113.181 140.788 114.655 140.214 116.087 139.581C137.47 130.116 149.423 106.638 144.504 83.7399L144.447 83.481C144.126 82.0251 143.74 80.5834 143.298 79.1992L143.304 79.198ZM86.6238 132.682L68.5529 138.741L71.375 125.275L69.9425 124.037C69.8378 123.947 69.7332 123.857 69.6142 123.753C63.3533 118.185 59.0911 110.914 57.2841 102.729C52.5724 81.3854 66.0977 60.1899 87.4346 55.4796C107.424 51.0668 127.811 62.9267 133.841 82.4803C134.163 83.5289 134.448 84.5913 134.681 85.6482C134.748 85.9502 134.808 86.248 134.873 86.5673C138.405 104.512 129.283 122.428 112.691 130.14C111.425 130.731 110.111 131.258 108.784 131.704C107.408 132.177 105.975 132.578 104.536 132.896C99.4094 134.028 94.2093 134.135 89.0698 133.211C88.5005 133.116 87.9383 133.003 87.4073 132.877L86.6316 132.692L86.6238 132.682Z" fill="#FDFDFD"/>
</svg>
