<svg width="189" height="188" viewBox="0 0 189 188" fill="none" xmlns="http://www.w3.org/2000/svg">
<path d="M171.273 76.7308C179.853 115.599 158.144 154.091 121.877 167.566C118.486 168.823 114.962 169.867 111.329 170.669C107.135 171.595 102.942 172.17 98.7886 172.408C60.8557 174.595 25.8634 149 17.408 110.698C8.02513 68.1946 34.8657 26.1327 77.3561 16.7526C119.847 7.37254 161.901 34.2255 171.283 76.7284L171.273 76.7308Z" fill="#1C1C1B"/>
<path d="M39.113 60.7889L85.071 100.409L57.885 146.873L65.9227 145.099L89.7273 104.42L122.44 132.622L149.788 126.585L101.246 84.7362L126.552 41.4861L118.514 43.2605L96.5948 80.7242L66.466 54.7505L39.1183 60.7877L39.113 60.7889ZM52.2367 64.1011L64.7973 61.3283L136.653 123.275L124.092 126.048L52.2367 64.1011Z" fill="white"/>
</svg>
